<?xml version="1.0" encoding="utf-8"?>
<svg xmlns="http://www.w3.org/2000/svg" viewBox="-77.062 -1.737 709.935 800.427" id="meerkat">
  <path d="M 58.5 774.9 C 80.9 710.5 130.9 615.5 142.9 458.3 C 154.8 301.1 151.1 249.5 142.9 197.1 C 134.7 144.7 106.3 84.1 193.7 43.7 C 281.1 3.3 327.4 7.8 364.7 39.2 C 402 70.6 416.9 89.7 428.2 97.6 C 436.4 103.4 450.6 114.8 467 117.8 C 483.4 120.8 500.6 129 502.1 138 C 503.6 147 501.4 172.9 487.2 182.9 C 472.3 193.4 440.9 220.3 386.4 223.3 C 331.9 226.3 323.7 226.7 317.7 251.4 C 311.7 276.1 313.2 298.7 314.2 317 C 315.1 333.7 316.9 355.8 330.4 385.8 C 343.8 415.7 417.8 564.7 405.1 617.8 C 392.4 670.9 373.7 776.5 355.1 798.9" style="stroke: rgb(0, 0, 0); paint-order: fill; fill-rule: evenodd; fill-opacity: 0; fill: none; stroke-width: 31px;"/>
  <path d="M 271.6 127.1 C 271.6 127.1 271.5 126.9 271.4 126.5 C 271.3 126.3 271.3 126.1 271.2 125.8 C 271.2 125.7 271.1 125.5 271.1 125.4 C 271.1 125.3 271 125.2 271 125.1 L 270.7 124.5 C 270.5 124.2 270.4 123.8 270.2 123.5 C 270 123.1 269.8 122.7 269.5 122.3 C 269.3 121.9 269 121.4 268.7 120.9 C 266.3 117 261.8 111.4 255.4 106.2 C 252.2 103.6 248.5 101.2 244.4 99.4 C 240.3 97.5 235.8 96.3 231.3 96 C 229 95.8 226.7 96 224.4 96.3 C 223.3 96.6 222.1 96.7 220.9 97 L 219.2 97.5 L 217.5 98.1 C 212.9 99.8 208.4 102.5 204.2 105.9 L 203.9 106 L 203.8 106.1 C 203.9 106 203.6 106.3 204 106 L 203.9 106 L 203.5 106.4 L 201.7 107.9 C 201.4 108.1 201.1 108.4 200.9 108.6 C 200.1 109.5 199.2 110.2 198.3 111.2 C 196.5 113.1 195 115.1 193.7 117.2 C 192.4 119.3 191.3 121.5 190.4 123.6 C 189.6 125.8 189 128.1 188.6 130.3 C 188.2 132.6 188.1 134.9 188.1 137.1 C 188.2 139.4 188.4 141.6 188.9 143.8 C 189.4 146 190 148.1 190.7 150.1 C 191.4 152.1 192.3 154 193.2 155.8 C 195.1 159.4 197.2 162.5 199.3 165.1 C 201.4 167.7 203.5 169.8 205.3 171.5 C 207.1 173.2 208.6 174.4 209.7 175.2 C 210.8 176 211.3 176.4 211.3 176.4 L 211.6 176.6 C 214.1 178.5 214.5 182 212.6 184.5 C 210.9 186.7 208 187.3 205.6 186.1 L 203.4 185 C 202.7 184.6 201.8 184.1 200.8 183.6 C 199.8 183 198.7 182.3 197.4 181.5 C 194.9 179.8 192 177.6 189 174.6 C 186 171.7 182.8 168 180 163.6 C 177.2 159.1 174.5 153.9 172.9 147.8 C 172 144.8 171.5 141.6 171.1 138.3 C 170.8 135 170.9 131.5 171.2 128 C 171.6 124.5 172.5 121 173.6 117.5 C 174.8 114.1 176.4 110.8 178.3 107.6 C 180.2 104.5 182.4 101.5 184.8 98.9 C 185.9 97.6 187.4 96.2 188.7 94.9 C 189.4 94.2 189.9 93.8 190.5 93.3 L 191.4 92.5 L 191.8 92.1 L 192.1 91.8 L 192.2 91.7 L 192.5 91.5 C 198 87.1 204.2 83.3 211.2 81 C 218.1 78.6 225.6 77.7 232.6 78.5 C 236.1 78.8 239.5 79.7 242.6 80.7 C 244.2 81.3 245.7 81.8 247.2 82.5 C 247.9 82.8 248.7 83.2 249.4 83.5 C 250.1 83.9 250.8 84.2 251.5 84.6 C 257 87.5 261.5 91.1 265.2 94.7 C 269 98.3 272 102 274.3 105.5 C 276.7 109 278.4 112.3 279.7 115.1 C 280 115.8 280.3 116.5 280.5 117.2 C 280.7 117.9 281 118.5 281.2 119.1 C 281.4 119.7 281.5 120.3 281.7 120.8 C 281.8 121.4 282 122 282.1 122.5 C 282.2 122.8 282.2 123 282.2 123.2 C 282.2 123.4 282.2 123.5 282.3 123.7 C 282.3 124 282.4 124.2 282.4 124.4 C 282.4 124.8 282.5 125 282.5 125 C 282.8 128.1 280.5 130.9 277.5 131.2 C 274.9 131.4 272.4 129.7 271.6 127.1 M 343.9 121.8 C 343.9 121.8 344.1 121.8 344.4 121.9 C 344.7 121.9 345.3 122 345.9 122 C 347.1 122.1 348.9 122.1 351 122.1 C 355.2 122 361 121.4 366.5 120 C 369.3 119.3 371.9 118.5 374.3 117.5 C 376.7 116.5 378.8 115.5 380.3 114.4 C 381.1 113.9 381.6 113.4 382.1 112.9 C 382.5 112.5 382.8 112.1 382.9 111.9 C 383 111.8 383 111.7 383 111.6 C 383 111.5 383.1 111.5 383.1 111.4 L 383.1 111.3 L 384.7 109.5 C 386.2 107.8 388.9 107.6 390.6 109.1 C 391.9 110.3 392.3 112.1 391.8 113.7 L 391.5 114.6 C 391.4 114.9 391.2 115.3 391 115.6 C 390.8 116 390.6 116.4 390.2 116.8 C 389.6 117.7 388.8 118.5 387.9 119.3 C 387 120.1 386 120.8 384.8 121.5 C 380.3 124.2 374.2 126.1 368 127.3 C 361.8 128.5 355.6 128.8 350.9 128.6 C 348.5 128.5 346.6 128.3 345.2 128.2 C 344.5 128.1 344 128 343.7 128 C 343.4 127.9 343.2 127.9 343.2 127.9 C 341.5 127.6 340.3 126 340.6 124.3 C 340.8 122.8 342.3 121.7 343.9 121.8"/>
  <path d="M 393.4 111.6 C 393.4 123.2 383.4 132.6 371 132.6 C 358.6 132.6 348.6 123.2 348.6 111.6 C 348.6 100 358.6 90.6 371 90.6 C 383.4 90.7 393.4 100 393.4 111.6 M 455.4 117.8 C 452.8 136.7 478.9 177.8 485.9 181.9 C 492.9 186 495.8 149.8 495.8 149.8 C 495.8 149.8 494.7 136 487.7 128.1 C 480.4 119.9 467.2 117.7 464.8 117.7 L 455.4 117.7"/>
  <path fill="none" stroke="#000" stroke-linecap="round" stroke-width="13.067" d="M 381.1 181.4 C 396 191.1 430.1 206.1 452.7 205.4"/>
  <path fill="none" stroke="#000" stroke-linecap="round" stroke-linejoin="round" d="M 246.7 466.2 C 238.5 483.4 207.1 536.6 234.8 592.7 C 262.4 648.8 272.5 728.5 276.2 739 C 279.9 749.5 291.1 751 296.4 748.7 C 301.6 746.5 325.1 731.5 323.3 715 C 321.4 698.5 293.8 618.1 301.3 576.9 C 308.8 535.7 311.8 512.5 311 502.1" style="stroke-width: 16px;"/>
</svg>